<svg xmlns="http://www.w3.org/2000/svg" xmlns:xlink="http://www.w3.org/1999/xlink" version="1.1" viewBox="0 0 24 30" x="0px" y="0px"><path d="M1 1h6v6h-6v-6z"/><path d="M17 1h6v6h-6v-6z"/><path d="M9 1h6v6h-6v-6z"/><path d="M1 9h6v6h-6v-6z"/><path d="M17 9h6v6h-6v-6z"/><path d="M9 9h6v6h-6v-6z"/><path d="M1 17h6v6h-6v-6z"/><path d="M17 17h6v6h-6v-6z"/><path d="M9 17h6v6h-6v-6z"/><text x="0" y="39" fill="#000000" font-size="5px" font-weight="bold" font-family="'Helvetica Neue', Helvetica, Arial-Unicode, Arial, Sans-serif">Created by Paco Trujillo</text><text x="0" y="44" fill="#000000" font-size="5px" font-weight="bold" font-family="'Helvetica Neue', Helvetica, Arial-Unicode, Arial, Sans-serif">from the Noun Project</text></svg>